<svg width="24" height="24" viewBox="0 0 24 24" fill="none" xmlns="http://www.w3.org/2000/svg">
<g id="Frame" clip-path="url(#clip0_1_448)">
<path id="Vector" d="M10.1472 13.7599C11.5388 15.1717 13.2227 16.2617 15.0805 16.9533L17.5938 14.9533C17.6683 14.902 17.7567 14.8745 17.8472 14.8745C17.9376 14.8745 18.026 14.902 18.1005 14.9533L22.7672 17.9599C22.9443 18.0665 23.0943 18.2127 23.2052 18.3871C23.3162 18.5616 23.385 18.7594 23.4063 18.965C23.4277 19.1706 23.4009 19.3784 23.3282 19.5719C23.2554 19.7654 23.1387 19.9393 22.9872 20.0799L20.8005 22.24C20.4873 22.5494 20.1024 22.7764 19.6802 22.9009C19.2579 23.0254 18.8114 23.0434 18.3805 22.9533C14.082 22.0655 10.1199 19.9863 6.94715 16.9533C3.84481 13.8901 1.698 9.99251 0.767151 5.73328C0.675196 5.30904 0.694388 4.86824 0.822869 4.4536C0.95135 4.03896 1.18476 3.66453 1.50048 3.36662L3.76715 1.17995C3.90742 1.03581 4.07848 0.925265 4.26752 0.8566C4.45656 0.787935 4.65868 0.762927 4.85876 0.783448C5.05883 0.803968 5.25168 0.869486 5.42284 0.975095C5.59401 1.0807 5.73907 1.22367 5.84715 1.39328L8.95382 5.99995C9.0074 6.07229 9.03633 6.15993 9.03633 6.24995C9.03633 6.33997 9.0074 6.42761 8.95382 6.49995L6.90715 8.95995C7.61754 10.7806 8.72431 12.4202 10.1472 13.7599Z" fill="#8BB06A"/>
</g>
<defs>
<clipPath id="clip0_1_448">
<rect width="24" height="24" fill="white"/>
</clipPath>
</defs>
</svg>
