<svg width="200" height="61" viewBox="0 0 200 61" fill="none" xmlns="http://www.w3.org/2000/svg">
<g id="Group 143">
<g id="Group">
<path id="Vector" d="M7.65265 58.2704H3.1361L2.38859 60.4327H0L4.0755 49.0798H6.72471L10.8002 60.4327H8.39443L7.65265 58.2704ZM7.03689 56.4489L5.39867 51.706L3.75759 56.4489H7.03689Z" fill="#5C6A2F"/>
<path id="Vector_2" d="M25.4068 49.0912L21.5719 56.4833V60.4299H19.295V56.4833L15.4457 49.0912H18.0119L20.4463 54.2723L22.8664 49.0912H25.4068Z" fill="#5C6A2F"/>
<path id="Vector_3" d="M33.0249 49.0912V56.1081C33.0163 57.6002 33.8325 58.4824 35.3161 58.4795C36.8111 58.4824 37.6331 57.6117 37.6245 56.1081V49.0912H39.9157C39.6694 52.992 41.5081 60.7421 35.2846 60.5445C29.1384 60.7507 31.0143 52.9147 30.7508 49.0912H33.0249Z" fill="#5C6A2F"/>
<path id="Vector_4" d="M52.0104 60.427L49.5073 56.0079H48.4361V60.427H46.1592V49.0884C47.6657 49.1858 51.366 48.782 52.6548 49.5495C55.4272 50.8039 54.9632 55.2174 51.9245 55.8303L54.6367 60.4299L52.0104 60.427ZM48.439 54.3066C49.8137 54.2895 52.2968 54.6732 52.1737 52.6169C52.2882 50.5892 49.7851 51.0016 48.439 50.9758V54.3066Z" fill="#5C6A2F"/>
<path id="Vector_5" d="M70.8214 49.0912L66.6629 60.4299H63.902L59.7434 49.0912H62.1807L65.2996 58.1072L68.4013 49.0912H70.8214Z" fill="#5C6A2F"/>
<path id="Vector_6" d="M78.5201 50.9271V53.7682H82.3378V55.5725H78.5201V58.5769H82.8247V60.4299H76.246V49.0769H82.8247V50.9271H78.5201Z" fill="#5C6A2F"/>
<path id="Vector_7" d="M96.0534 49.7901C99.831 51.6001 99.8482 57.9296 96.0534 59.734C94.4008 60.7535 90.8724 60.364 88.9478 60.4328V49.0941C90.881 49.16 94.3951 48.7734 96.0534 49.7901ZM95.5923 57.5201C96.9011 56.3344 96.8839 53.2011 95.5923 52.004C94.7073 50.9156 92.6423 50.9643 91.2218 51.0044V58.4938C92.6366 58.5311 94.7044 58.5826 95.5923 57.5201Z" fill="#5C6A2F"/>
<path id="Vector_8" d="M111.605 58.2704H107.088L106.344 60.4327H103.955L108.033 49.0798H110.68L114.758 60.4327H112.352L111.605 58.2704ZM110.989 56.4489L109.348 51.706L107.71 56.4489H110.989Z" fill="#5C6A2F"/>
<path id="Vector_9" d="M128.474 51.7462C130.596 47.705 137.493 48.1117 138.796 52.614H136.181C134.583 49.4321 129.66 51.3137 130.055 54.7419C129.665 58.1702 134.586 60.0547 136.181 56.8527H138.796C135.714 64.5369 124.53 59.0637 128.474 51.7462Z" fill="#5C6A2F"/>
<path id="Vector_10" d="M147.082 58.6256H150.816V60.4299H144.805V49.0912H147.082V58.6256Z" fill="#5C6A2F"/>
<path id="Vector_11" d="M158.595 49.0912V60.4299H156.321V49.0912H158.595Z" fill="#5C6A2F"/>
<path id="Vector_12" d="M174.596 60.427H172.322L167.173 52.6454V60.427H164.899V49.074H167.173L172.322 56.8699V49.074H174.596V60.427Z" fill="#5C6A2F"/>
<path id="Vector_13" d="M183.171 49.0912V60.4299H180.897V49.0912H183.171Z" fill="#5C6A2F"/>
<path id="Vector_14" d="M189.675 51.7462C191.8 47.705 198.691 48.1117 199.997 52.614H197.382C195.784 49.4349 190.858 51.3137 191.256 54.7419C190.867 58.1702 195.787 60.0547 197.382 56.8527H199.997C196.918 64.534 185.732 59.0666 189.675 51.7462Z" fill="#5C6A2F"/>
</g>
<g id="Group_2">
<g id="Group_3">
<path id="Vector_15" d="M144.341 0.128107C144.361 -0.261399 148.104 0.357226 148.413 0.403051C150.355 0.700908 152.194 1.06178 154.015 1.84652C155.754 2.59689 157.398 3.62793 158.695 5.02271C160.505 6.97024 161.45 9.49344 161.951 12.0682C162.281 13.7637 162.438 15.485 162.573 17.2034C162.636 18.0282 162.79 19.7294 161.599 19.8211C157.587 20.1247 152.892 18.9418 149.745 16.39C146.769 13.9785 145.234 10.3612 144.641 6.65234C144.295 4.50146 144.235 2.30476 144.341 0.128107Z" fill="#5C6A2F"/>
<path id="Vector_16" d="M141.795 40.2014C144.263 40.7169 147.102 39.0873 149.215 37.9674C154.19 35.3297 158.094 30.0914 161.118 25.0393C163.638 20.8263 165.483 16.2553 167.92 11.9994C170.976 6.65514 175.155 2.02116 181.367 0.569099C185.749 -0.456219 190.211 0.649291 193.679 3.50472C189.197 2.51949 184.394 3.83122 180.628 6.45179C172.039 12.4319 169.744 23.3724 163.936 31.5263C158.821 38.6949 150.452 42.0172 141.795 40.2014Z" fill="#5C6A2F"/>
</g>
<g id="Group_4">
<path id="Vector_17" d="M0 4.04891H13.1945C19.8133 4.04891 24.8339 8.29338 24.8339 14.2734C24.8339 20.2535 19.8133 24.498 13.1945 24.498H4.61107V35.4099H0V4.04891ZM12.5558 20.2106C17.0753 20.2106 20.134 17.9738 20.134 14.2763C20.134 10.5789 17.0753 8.34207 12.5558 8.34207H4.61393V20.2106H12.5558Z" fill="#FAAE1C"/>
<path id="Vector_18" d="M43.0034 11.2634V15.19C38.1174 15.19 34.6491 17.8822 34.2395 21.992V35.4128H29.7172V11.8105H34.2366V16.3299C35.7431 13.2253 38.9394 11.2634 43.0034 11.2634Z" fill="#FAAE1C"/>
<path id="Vector_19" d="M67.1954 21.1242V35.4128H62.7676V32.1708C61.032 34.6367 57.7928 35.9598 54.9145 35.9598C49.8938 35.9598 46.1964 33.0386 46.1964 28.4275C46.1964 23.7248 50.4409 20.5743 55.6448 20.5743C57.9732 20.5743 60.485 21.0755 62.7676 21.8517V21.1214C62.7676 18.1543 61.3986 15.0038 56.6959 15.0038C54.3674 15.0038 52.0848 15.9175 50.0313 16.9657L48.3874 13.632C51.7669 11.9422 54.734 11.2577 57.3346 11.2577C63.6812 11.2634 67.1954 15.2788 67.1954 21.1242ZM62.7676 28.0179V24.8675C60.8516 24.2747 58.6606 23.9539 56.3322 23.9539C53.1817 23.9539 50.5354 25.7353 50.5354 28.29C50.5354 30.8476 52.818 32.3999 55.7851 32.3999C58.7036 32.3999 61.9915 30.9392 62.7676 28.0179Z" fill="#FAAE1C"/>
<path id="Vector_20" d="M70.7839 11.2634H75.9306L83.6749 30.6041L91.276 11.2634H96.4226L85.9346 36.1346H81.461L70.7839 11.2634Z" fill="#FAAE1C"/>
<path id="Vector_21" d="M118.092 21.1242V35.4128H113.664V32.1708C111.929 34.6367 108.69 35.9598 105.811 35.9598C100.791 35.9598 97.0933 33.0386 97.0933 28.4275C97.0933 23.7248 101.338 20.5743 106.542 20.5743C108.87 20.5743 111.382 21.0755 113.664 21.8517V21.1214C113.664 18.1543 112.295 15.0038 107.593 15.0038C105.264 15.0038 102.982 15.9175 100.928 16.9657L99.2842 13.632C102.664 11.9422 105.631 11.2577 108.231 11.2577C114.578 11.2634 118.092 15.2788 118.092 21.1242ZM113.664 28.0179V24.8675C111.748 24.2747 109.557 23.9539 107.229 23.9539C104.079 23.9539 101.432 25.7353 101.432 28.29C101.432 30.8476 103.715 32.3999 106.682 32.3999C109.603 32.3999 112.888 30.9392 113.664 28.0179Z" fill="#FAAE1C"/>
<path id="Vector_22" d="M144.386 21.1242V35.4128H139.959V32.1708C138.223 34.6367 134.984 35.9598 132.106 35.9598C127.085 35.9598 123.387 33.0386 123.387 28.4275C123.387 23.7248 127.632 20.5743 132.836 20.5743C135.164 20.5743 137.676 21.0755 139.959 21.8517V21.1214C139.959 18.1543 138.59 15.0038 133.887 15.0038C131.559 15.0038 129.276 15.9175 127.222 16.9657L125.578 13.632C128.958 11.9422 131.925 11.2577 134.526 11.2577C140.872 11.2634 144.386 15.2788 144.386 21.1242ZM139.959 28.0179V24.8675C138.043 24.2747 135.852 23.9539 133.523 23.9539C130.373 23.9539 127.726 25.7353 127.726 28.29C127.726 30.8476 130.009 32.3999 132.976 32.3999C135.895 32.3999 139.183 30.9392 139.959 28.0179Z" fill="#FAAE1C"/>
<path id="Vector_23" d="M200 11.2635V35.4014H195.378V31.8987C193.931 34.2787 190.99 35.9599 187.722 35.9599C182.401 35.9599 178.666 32.0849 178.666 26.6232V11.2635H183.194V25.8299C183.194 29.4242 185.482 31.9446 188.75 31.9446C192.113 31.9446 195.005 29.7507 195.38 26.901V11.2606H200V11.2635Z" fill="#FAAE1C"/>
</g>
</g>
</g>
</svg>
